# xmcd
#
# Track frame offsets:
#	150
#	24309
#	38542
#	52167
#	74355
#
# Disc length: 1238 seconds
#
# Revision: 0
# Processed by: cddbd v1.5.2PL0 Copyright (c) Steve Scherf et al.
# Submitted via: dBpowerAMP V4.0
#
DISCID=3b04d405
DTITLE=The Yellow Melodies - How I Learned To Love Television Personalities
DYEAR=2012
DGENRE=Indie
TTITLE0=If I Could Write Poetry
TTITLE1=Look Back In Anger
TTITLE2=14th Floor
TTITLE3=Happy All The Time
TTITLE4=Where The Rainbow Ends
EXTD=
EXTT0=
EXTT1=
EXTT2=
EXTT3=
EXTT4=
PLAYORDER=
